Coordinates
version=1
nRows=33
nColumns=33
inDegrees=yes

Units are S.I. units (second, meters, Newtons, ...)
Angles are in degrees.

endheader
time	ground_thorax_rot_x	ground_thorax_rot_y	ground_thorax_rot_z	ground_thorax_tx	ground_thorax_ty	ground_thorax_tz	clav_prot_r	clav_elev_r	scapula_abduction_r	scapula_elevation_r	scapula_upward_rot_r	scapula_winging_r	shoulder_elv_r	plane_of_elev_r	axial_rot_r	elbow_flexion_r	pro_sup_r	wrist_flex_r	wrist_dev_r	clav_prot_l	clav_elev_l	scapula_abduction_l	scapula_elevation_l	scapula_upward_rot_l	scapula_winging_l	shoulder_elv_l	plane_of_elev_l	axial_rot_l	elbow_flexion_l	pro_sup_l	wrist_flex_l	wrist_dev_l	
3.9800	-2.641252	5.210803	12.873328	-0.115495	1.026734	0.014475	11.664992	-14.380536	23.261249	-9.138953	5.886806	-4.078070	-14.071976	-65.872518	115.054758	-73.142411	-162.467193	12.107836	0.680923	15.466622	-5.584493	-21.871305	-14.746052	-32.176676	3.751511	64.843493	-17.521575	5.804168	60.004165	15.451451	24.616753	-11.072742	
3.9900	-2.760908	5.251665	12.847424	-0.115361	1.026644	0.014279	11.792473	-14.442290	23.735607	-9.373633	6.377489	-4.226713	-13.027124	-65.238361	115.812355	-72.015205	-162.385070	11.322445	1.149081	15.718789	-5.784427	-22.268609	-14.349583	-31.762482	4.001696	64.692125	-16.672283	6.037961	58.637261	15.395720	25.186865	-10.575938	
4.0000	-2.885994	5.288732	12.814444	-0.115201	1.026605	0.014072	11.925192	-14.529295	24.224911	-9.632634	6.876951	-4.365955	-12.074958	-64.602661	116.449041	-70.820339	-162.234094	10.623410	1.534758	15.961141	-6.001512	-22.650680	-13.937509	-31.346370	4.242286	64.553079	-15.838666	6.256407	57.208275	15.392050	25.653986	-10.145098	
4.0100	-3.010478	5.315014	12.769831	-0.115008	1.026567	0.013862	12.055341	-14.603168	24.729210	-9.889635	7.407590	-4.516130	-11.172952	-63.958131	117.047820	-69.574531	-162.023501	9.950940	1.897775	16.202387	-6.209992	-23.032090	-13.530781	-30.923312	4.481662	64.389740	-14.995703	6.497706	55.712157	15.415821	26.074572	-9.746292	
4.0200	-3.138637	5.337887	12.715169	-0.114793	1.026557	0.013653	12.196857	-14.691673	25.256744	-10.159491	7.943254	-4.666377	-10.344161	-63.310885	117.546834	-68.280763	-161.755783	9.336025	2.210984	16.442305	-6.425871	-23.412750	-13.115455	-30.495039	4.719344	64.232547	-14.167378	6.726128	54.163396	15.480777	26.414981	-9.394031	
4.0300	-3.264115	5.348064	12.670040	-0.114564	1.026534	0.013445	12.347277	-14.767121	25.802155	-10.415883	8.480475	-4.830076	-9.544203	-62.665255	118.027405	-66.950320	-161.432929	8.735302	2.515463	16.688376	-6.634182	-23.806290	-12.709658	-30.071563	4.961033	64.048901	-13.349239	6.970467	52.566482	15.563293	26.725792	-9.061264	
4.0400	-3.383669	5.350470	12.629222	-0.114325	1.026500	0.013232	12.511654	-14.828461	26.371958	-10.656109	9.015205	-5.011684	-8.769960	-62.018102	118.475044	-65.577708	-161.031661	8.160065	2.799745	16.943735	-6.832921	-24.218419	-12.314021	-29.651122	5.211342	63.835888	-12.533310	7.234414	50.926929	15.667603	26.988661	-8.760630	
4.0500	-3.497286	5.340159	12.599608	-0.114072	1.026449	0.013022	12.683199	-14.868990	26.956787	-10.875891	9.551307	-5.210852	-8.016137	-61.374372	118.914470	-64.170909	-160.558018	7.602100	3.070978	17.208732	-7.017600	-24.649620	-11.935251	-29.238981	5.469763	63.590059	-11.725165	7.521290	49.250828	15.786647	27.213086	-8.483578	
4.0600	-3.602970	5.327200	12.556123	-0.113807	1.026397	0.012806	12.865866	-14.893055	27.564565	-11.079660	10.091152	-5.428479	-7.270191	-60.724967	119.325413	-62.729358	-160.009450	7.066865	3.319723	17.487054	-7.193117	-25.106036	-11.564253	-28.825929	5.741076	63.324997	-10.914187	7.823579	47.545011	15.921361	27.388715	-8.232738	
4.0700	-3.699598	5.309059	12.515799	-0.113533	1.026337	0.012585	13.056195	-14.894523	28.189955	-11.262227	10.635160	-5.666105	-6.544106	-60.080866	119.714530	-61.253614	-159.378148	6.556653	3.543561	17.780465	-7.358243	-25.590835	-11.206772	-28.421929	6.026096	63.035391	-10.110708	8.139804	45.819855	16.068458	27.508450	-8.009307	
4.0800	-3.786035	5.293722	12.458143	-0.113249	1.026279	0.012353	13.255420	-14.875135	28.839502	-11.427682	11.191014	-5.925270	-5.831476	-59.437373	120.068348	-59.742893	-158.667307	6.073989	3.736454	18.091066	-7.515425	-26.107264	-10.856569	-28.018844	6.328096	62.730567	-9.304137	8.463656	44.080440	16.225996	27.566738	-7.812709	
4.0900	-3.871474	5.278003	12.401665	-0.112955	1.026249	0.012123	13.459209	-14.857410	29.501655	-11.594077	11.752067	-6.187970	-5.173031	-58.814861	120.354663	-58.203405	-157.912091	5.638062	3.880208	18.411760	-7.678184	-26.642533	-10.506663	-27.626799	6.637865	62.439804	-8.533171	8.756762	42.341304	16.396274	27.546502	-7.638974	
4.1000	-3.949554	5.264969	12.325581	-0.112644	1.026236	0.011889	13.663250	-14.822979	30.187118	-11.754407	12.346333	-6.468026	-4.566203	-58.209010	120.579026	-56.632991	-157.100166	5.250194	3.968703	18.746772	-7.834395	-27.204052	-10.162166	-27.234374	6.962839	62.146242	-7.770390	9.042363	40.597596	16.568491	27.437989	-7.489113	
4.1100	-4.017495	5.250746	12.258239	-0.112332	1.026213	0.011667	13.870040	-14.750799	30.903770	-11.890953	12.978009	-6.781703	-4.040834	-57.627836	120.736846	-55.028826	-156.196839	4.919576	3.994359	19.102860	-7.979916	-27.803429	-9.833138	-26.855770	7.308591	61.835285	-7.027133	9.322436	38.856839	16.737282	27.225385	-7.371448	
4.1200	-4.075022	5.238368	12.184113	-0.112010	1.026187	0.011454	14.077397	-14.646779	31.648680	-12.009426	13.648714	-7.123639	-3.578224	-57.071860	120.836244	-53.403667	-155.242937	4.633398	3.964888	19.473196	-8.114537	-28.428499	-9.516541	-26.483127	7.669102	61.515388	-6.295863	9.583935	37.126295	16.896133	26.937939	-7.270943	
4.1300	-4.129488	5.225328	12.109100	-0.111679	1.026173	0.011263	14.283305	-14.526200	32.415087	-12.121175	14.352443	-7.481549	-3.194270	-56.551759	120.867387	-51.768936	-154.281831	4.397828	3.866389	19.847961	-8.245549	-29.062244	-9.206548	-26.116964	8.034335	61.207278	-5.597772	9.805294	35.414083	17.042219	26.581722	-7.175218	
4.1400	-4.182247	5.214335	12.020106	-0.111323	1.026195	0.011081	14.483617	-14.410897	33.188829	-12.242014	15.078216	-7.836392	-2.864557	-56.076506	120.842773	-50.139686	-153.377217	4.204168	3.694607	20.212592	-8.376195	-29.679770	-8.897050	-25.748784	8.391102	60.923404	-4.929849	9.972254	33.730369	17.174535	26.181914	-7.069478	
4.1500	-4.233110	5.203186	11.927831	-0.110954	1.026247	0.010910	14.681286	-14.296787	33.968325	-12.364516	15.815245	-8.190623	-2.580620	-55.647139	120.782563	-48.523442	-152.529821	4.045735	3.447766	20.565131	-8.506687	-30.277732	-8.590096	-25.382917	8.736746	60.658554	-4.294971	10.093548	32.078723	17.292683	25.750022	-6.951466	
4.1600	-4.283505	5.190338	11.837792	-0.110574	1.026328	0.010748	14.876970	-14.187744	34.750947	-12.489557	16.556667	-8.541363	-2.344855	-55.273223	120.699422	-46.928740	-151.769658	3.931815	3.087253	20.897864	-8.636689	-30.843241	-8.285963	-25.018798	9.064826	60.414308	-3.699033	10.166712	30.468356	17.393399	25.276879	-6.816949	
4.1700	-4.332812	5.175475	11.744272	-0.110191	1.026430	0.010604	15.075560	-14.072644	35.546027	-12.607927	17.304571	-8.899881	-2.158152	-54.943911	120.592004	-45.368462	-151.068994	3.867079	2.610293	21.214988	-8.766836	-31.383146	-7.984301	-24.657318	9.378773	60.190185	-3.137403	10.209637	28.898790	17.477530	24.754961	-6.671032	
4.1800	-4.368953	5.156744	11.653428	-0.109822	1.026517	0.010480	15.282542	-13.920614	36.370834	-12.695810	18.070704	-9.292421	-2.022885	-54.656254	120.471828	-43.844729	-150.360603	3.859855	2.001190	21.524887	-8.887025	-31.911715	-7.697202	-24.306147	9.687245	59.954623	-2.587857	10.262230	27.369605	17.543948	24.162765	-6.527995	
4.1900	-4.395487	5.138870	11.571391	-0.109477	1.026605	0.010379	15.500924	-13.746823	37.209709	-12.757614	18.824966	-9.705720	-1.925130	-54.402804	120.330043	-42.383375	-149.630443	3.890066	1.319228	21.826453	-9.013224	-32.425432	-7.416612	-23.977493	9.983688	59.729415	-2.061871	10.310460	25.891740	17.611285	23.537153	-6.388531	
4.2000	-4.411674	5.120706	11.501498	-0.109154	1.026698	0.010294	15.724765	-13.561385	38.047498	-12.800153	19.559322	-10.127392	-1.857592	-54.189591	120.175426	-40.996119	-148.884364	3.948517	0.580551	22.113457	-9.146143	-32.913395	-7.143787	-23.674750	10.261400	59.515480	-1.557503	10.358246	24.470085	17.688770	22.892513	-6.250628	
4.2100	-4.421262	5.100729	11.435102	-0.108850	1.026802	0.010223	15.952218	-13.373098	38.876431	-12.829495	20.267077	-10.549273	-1.810159	-54.012234	120.012872	-39.699220	-148.111006	4.024412	-0.199677	22.380817	-9.285899	-33.366556	-6.879849	-23.400053	10.515139	59.326722	-1.070761	10.414415	23.110755	17.796039	22.237571	-6.114750	
4.2200	-4.422805	5.077560	11.374392	-0.108565	1.026917	0.010163	16.178659	-13.184804	39.685403	-12.847227	20.943160	-10.965092	-1.777954	-53.869060	119.848079	-38.498415	-147.316529	4.109494	-1.000706	22.625887	-9.432072	-33.780314	-6.625247	-23.153370	10.742205	59.159464	-0.601110	10.485509	21.815961	17.937107	21.581264	-5.983259	
4.2300	-4.420271	5.050681	11.307169	-0.108294	1.027040	0.010115	16.404220	-12.999519	40.473439	-12.855664	21.585868	-11.372763	-1.753892	-53.753736	119.685231	-37.405940	-146.495385	4.194310	-1.803986	22.847231	-9.584104	-34.152172	-6.379888	-22.933519	10.941552	59.027596	-0.147766	10.578346	20.595264	18.126188	20.925011	-5.861290	
4.2400	-4.411132	5.020578	11.235340	-0.108043	1.027158	0.010080	16.626216	-12.805498	41.238031	-12.846551	22.198795	-11.778507	-1.743749	-53.657094	119.524647	-36.420814	-145.649763	4.276554	-2.583323	23.048834	-9.736501	-34.489262	-6.145174	-22.733725	11.118140	58.914412	0.292303	10.702794	19.442141	18.353721	20.268848	-5.756236	
4.2500	-4.392722	4.982495	11.166281	-0.107814	1.027245	0.010063	16.852491	-12.584871	41.999385	-12.807305	22.792289	-12.201941	-1.771371	-53.581389	119.356773	-35.538385	-144.735825	4.365491	-3.354510	23.232258	-9.885302	-34.793811	-5.928673	-22.563408	11.273749	58.815129	0.717611	10.876131	18.369968	18.626915	19.583033	-5.681110	
4.2600	-4.371089	4.943168	11.115645	-0.107603	1.027327	0.010056	17.070664	-12.368896	42.709629	-12.755366	23.327127	-12.606028	-1.821543	-53.524669	119.186046	-34.773275	-143.840251	4.438312	-4.029873	23.390499	-10.040210	-35.053505	-5.720564	-22.418639	11.398953	58.733219	1.104573	11.056040	17.382852	18.925195	18.937345	-5.624502	
4.2700	-4.351209	4.902454	11.080677	-0.107399	1.027407	0.010054	17.271378	-12.168846	43.350300	-12.699836	23.798638	-12.975284	-1.888618	-53.487697	119.031527	-34.128939	-142.990721	4.491855	-4.599252	23.523223	-10.194814	-35.268626	-5.525208	-22.297178	11.495701	58.669312	1.449455	11.240417	16.491465	19.236696	18.344385	-5.583571	
4.2800	-4.339843	4.866515	11.057031	-0.107194	1.027509	0.010047	17.440683	-12.012555	43.879564	-12.658397	24.179729	-13.275771	-1.944547	-53.460491	118.907870	-33.615053	-142.258981	4.511359	-5.022493	23.629074	-10.350448	-35.437474	-5.337754	-22.191123	11.563329	58.630294	1.742759	11.399518	15.698830	19.544899	17.845063	-5.547874	
4.2900	-4.336912	4.830187	11.042288	-0.106988	1.027599	0.010040	17.576026	-11.879202	44.310298	-12.620154	24.494437	-13.523277	-2.009565	-53.439173	118.826358	-33.214131	-141.614024	4.522979	-5.366705	23.715618	-10.488297	-35.574317	-5.174709	-22.102405	11.614444	58.600334	1.992903	11.561476	15.017942	19.832668	17.398918	-5.524734	
4.3000	-4.347071	4.801590	11.030156	-0.106778	1.027702	0.010028	17.668883	-11.789153	44.614280	-12.597870	24.722578	-13.694099	-2.059117	-53.411156	118.785248	-32.927123	-141.116514	4.519302	-5.604604	23.784212	-10.613369	-35.681805	-5.027318	-22.021732	11.650303	58.588680	2.192444	11.689649	14.442923	20.081408	17.046344	-5.501724	
